<svg width="74" height="67" viewBox="0 0 74 67" fill="none" xmlns="http://www.w3.org/2000/svg">
<ellipse cx="36" cy="33.5" rx="36" ry="33.5" fill="white"/>
<path d="M3.83398 51.3624C5.33508 51.3624 6.83618 51.3624 8.33728 51.3624C8.96182 51.3624 9.68149 50.9441 10.1856 50.5965C11.0363 50.0098 11.7531 49.8638 12.6364 49.4222C13.3752 49.0528 14.0115 48.5405 14.6787 48.064C15.308 47.6145 16.1067 47.4506 16.6597 46.9101C17.5812 46.0096 18.8075 45.0412 20.0704 44.7044C21.1862 44.4069 22.2806 42.9597 23.2155 42.2741C23.7729 41.8653 23.9384 41.2063 24.5022 40.8036C25.0136 40.4383 25.5176 39.6583 25.8705 39.1289C26.1998 38.6351 25.9213 38.0489 26.2586 37.5768C26.7213 36.9289 26.1029 38.6014 26.0339 38.8634C25.533 40.7668 25.5233 43.1281 25.5233 45.1027C25.5233 46.1749 25.5233 47.2471 25.5233 48.3193C25.5233 49.5028 25.5613 50.0556 26.81 50.4025C28.7246 50.9343 30.4545 51.1786 32.4366 51.1786C33.8224 51.1786 35.0943 51.153 36.4497 50.8518C38.1376 50.4767 38.7645 49.7005 40.1463 48.595C41.3471 47.6344 42.1805 46.4074 43.1894 45.2865C44.025 44.358 44.9012 43.1511 45.8444 42.3966C46.7627 41.662 47.4441 40.3545 47.805 39.2719C48.3421 37.6604 48.1317 40.2539 48.1317 40.8036C48.1317 42.2273 47.4605 45.6889 48.6832 46.7263C49.9902 47.8353 50.9238 49.1036 52.7372 49.3303C54.9886 49.6117 57.1753 49.7081 59.487 49.7081C60.8421 49.7081 61.9499 48.9729 63.2449 48.9729C64.0281 48.9729 65.2849 49.2872 65.6956 48.5031C66.0262 47.872 66.7514 47.8045 67.0742 47.288C67.338 46.8658 67.7326 46.4866 68.0851 46.1341C68.3506 45.8686 69.6814 44.7806 69.9641 44.7453C70.3787 44.6935 70.7704 43.743 71.0159 43.4484C71.4964 42.8718 71.9495 42.6555 72.3944 41.9882" stroke="#37C3F6" stroke-width="3" stroke-linecap="round"/>
</svg>
